<svg width="21" height="21" viewBox="0 0 21 21" fill="none" xmlns="http://www.w3.org/2000/svg">
<path d="M17.625 3.3063C13.7237 -0.595071 7.39835 -0.595071 3.4978 3.30638C-0.403538 7.20772 -0.403538 13.533 3.49795 17.4335C7.39835 21.3349 13.7237 21.3349 17.625 17.4335C21.5264 13.533 21.5264 7.20772 17.625 3.3063ZM16.4478 16.2561C13.1966 19.5074 7.92558 19.5074 4.67525 16.2563C1.42402 13.0058 1.42402 7.73479 4.67517 4.48363C7.92558 1.23244 13.1966 1.23244 16.4477 4.48363C19.6989 7.73482 19.6989 13.0058 16.4478 16.2561Z" fill="#0072AB"/>
<path d="M10.5614 4.54268C10.1017 4.54268 9.72893 4.9154 9.72893 5.37515L9.72893 9.5375L5.56657 9.5375C5.10682 9.5375 4.7341 9.91022 4.7341 10.37C4.7341 10.8297 5.10682 11.2024 5.56657 11.2024L9.72893 11.2024L9.72893 15.3632C9.72893 15.823 10.1016 16.1957 10.5614 16.1957C11.0211 16.1957 11.3939 15.823 11.3939 15.3632V11.2024H15.5559C16.0156 11.2024 16.3884 10.8297 16.3884 10.37C16.3884 9.91022 16.0156 9.5375 15.5559 9.5375L11.3939 9.5375L11.3939 5.37515C11.3939 4.9154 11.0212 4.54271 10.5614 4.54268Z" fill="#0072AB"/>
</svg>
