<svg width="21" height="21" viewBox="0 0 21 21" fill="none" xmlns="http://www.w3.org/2000/svg">
<path d="M17.9124 3.11757C14.011 -0.783802 7.68568 -0.783802 3.78513 3.11765C-0.116207 7.01898 -0.116207 13.3442 3.78528 17.2448C7.68568 21.1461 14.011 21.1461 17.9124 17.2447C21.8137 13.3442 21.8137 7.01899 17.9124 3.11757ZM16.7351 16.0674C13.4839 19.3186 8.21291 19.3186 4.96258 16.0675C1.71135 12.8171 1.71135 7.54605 4.9625 4.2949C8.21291 1.04371 13.4839 1.04371 16.7351 4.2949C19.9862 7.54609 19.9862 12.8171 16.7351 16.0674Z" fill="#F2994A"/>
<path d="M15.8434 9.34878C16.3031 9.34878 16.6758 9.7215 16.6758 10.1812C16.6758 10.641 16.3031 11.0137 15.8434 11.0137L11.681 11.0137L10.0161 11.0137L5.85527 11.0137C5.39552 11.0137 5.0228 10.641 5.0228 10.1812C5.0228 9.7215 5.39552 9.34877 5.85527 9.34877L10.0161 9.34878L11.681 9.34877L15.8434 9.34878Z" fill="#F2994A"/>
</svg>
