<svg width="381" height="83" viewBox="0 0 381 83" fill="none" xmlns="http://www.w3.org/2000/svg">
<path d="M97.5275 62.591H60.4819C58.7733 62.591 57.6084 61.3484 57.6084 59.9504V31.2926C57.6084 29.5063 58.6957 28.186 60.4819 28.186H83.2374V33.8555H63.2778V56.9216H94.5763V48.2232H100.712V59.9504C100.634 61.3484 99.2361 62.591 97.5275 62.591Z" fill="#596271"/>
<path d="M66.0737 54.3587L78.0339 42.9421L83.315 47.9902L89.1398 40.3792L91.9357 45.8157V54.3587H66.0737Z" fill="#596271"/>
<path d="M71.9762 42.8644C70.3452 42.8644 69.0249 41.5442 69.0249 39.9132C69.0249 38.2823 70.3452 36.962 71.9762 36.962C73.6071 36.962 74.9274 38.2823 74.9274 39.9132C74.9274 41.5442 73.6071 42.8644 71.9762 42.8644Z" fill="#596271"/>
<path d="M100.634 31.2926V42.6315H94.4986V31.2926H86.3439L97.6052 20.109L108.866 31.2926H100.634Z" fill="#596271"/>
<path d="M119.429 32.6134H123.467V43.4863C123.467 45.1949 123.545 46.3599 123.622 46.8258C123.778 47.6801 124.244 48.3014 124.865 48.7674C125.486 49.2334 126.418 49.5441 127.506 49.5441C128.671 49.5441 129.525 49.3111 130.069 48.8451C130.612 48.3791 131.001 47.8355 131.156 47.1365C131.311 46.4375 131.311 45.3502 131.311 43.7193V32.6134H135.35V43.098C135.35 45.5056 135.272 47.2142 135.039 48.2238C134.806 49.2334 134.418 50.0877 133.796 50.709C133.175 51.3303 132.398 51.9516 131.467 52.34C130.535 52.7283 129.214 52.9613 127.583 52.9613C125.642 52.9613 124.244 52.7283 123.234 52.2623C122.225 51.7963 121.448 51.2527 120.904 50.5537C120.361 49.8547 119.972 49.0781 119.739 48.3014C119.506 47.1365 119.351 45.4279 119.351 43.2533V32.6134H119.429Z" fill="#596271"/>
<path d="M139.466 38.127H143.038V40.2239C143.504 39.5249 144.126 38.9036 144.902 38.4376C145.679 37.9716 146.611 37.7386 147.543 37.7386C149.252 37.7386 150.649 38.3599 151.814 39.6802C152.979 41.0005 153.601 42.8644 153.601 45.1944C153.601 47.6019 152.979 49.4659 151.814 50.8638C150.649 52.2617 149.174 52.8831 147.543 52.8831C146.766 52.8831 145.99 52.7277 145.368 52.4171C144.747 52.1064 144.048 51.5628 143.349 50.7861V58.0865H139.544V38.127H139.466ZM143.271 45.1167C143.271 46.7476 143.582 47.9126 144.203 48.6892C144.825 49.4659 145.601 49.8542 146.533 49.8542C147.388 49.8542 148.164 49.4659 148.786 48.7669C149.407 48.0679 149.64 46.903 149.64 45.272C149.64 43.7187 149.329 42.6315 148.708 41.8548C148.087 41.0782 147.31 40.7675 146.456 40.7675C145.524 40.7675 144.747 41.1558 144.126 41.8548C143.504 42.5538 143.271 43.6411 143.271 45.1167Z" fill="#596271"/>
<path d="M156.707 52.5724V32.6128H160.513V52.6501H156.707V52.5724Z" fill="#596271"/>
<path d="M163.542 45.1167C163.542 43.8741 163.852 42.6315 164.474 41.3888C165.095 40.1462 166.027 39.2919 167.114 38.6706C168.201 38.0493 169.522 37.7386 170.997 37.7386C173.172 37.7386 174.958 38.4376 176.356 39.9132C177.754 41.3888 178.453 43.1751 178.453 45.3497C178.453 47.5243 177.754 49.3882 176.356 50.7861C174.958 52.1841 173.172 52.9607 170.997 52.9607C169.677 52.9607 168.434 52.6501 167.192 52.0288C165.949 51.4074 165.095 50.5531 164.474 49.3882C163.852 48.2232 163.542 46.8253 163.542 45.1167ZM167.502 45.3497C167.502 46.8253 167.813 47.9126 168.512 48.6892C169.211 49.4659 170.065 49.8542 171.075 49.8542C172.085 49.8542 172.939 49.4659 173.56 48.6892C174.182 47.9126 174.57 46.8253 174.57 45.3497C174.57 43.9517 174.259 42.8644 173.56 42.0878C172.861 41.3112 172.007 40.9228 171.075 40.9228C170.143 40.9228 169.211 41.3112 168.512 42.0878C167.813 42.8644 167.502 43.8741 167.502 45.3497Z" fill="#596271"/>
<path d="M184.433 42.4761L180.938 41.8548C181.327 40.4569 182.026 39.4472 182.958 38.7483C183.89 38.0493 185.365 37.7386 187.229 37.7386C188.938 37.7386 190.18 37.9716 191.035 38.3599C191.889 38.7483 192.433 39.2919 192.821 39.9132C193.209 40.5345 193.364 41.6995 193.364 43.3304L193.287 47.8349C193.287 49.0775 193.364 50.0872 193.442 50.6308C193.52 51.1745 193.83 51.8734 194.141 52.5724H190.336C190.258 52.3394 190.103 51.9511 189.947 51.4074C189.87 51.1745 189.87 51.0191 189.792 50.9415C189.171 51.5628 188.472 52.0288 187.695 52.3394C186.918 52.6501 186.142 52.8054 185.287 52.8054C183.812 52.8054 182.647 52.4171 181.793 51.5628C180.938 50.7085 180.472 49.6988 180.472 48.4562C180.472 47.6019 180.705 46.903 181.094 46.2816C181.482 45.6603 182.026 45.1167 182.725 44.806C183.424 44.4954 184.433 44.1847 185.753 43.8741C187.54 43.5634 188.782 43.2528 189.481 42.9421V42.5538C189.481 41.8548 189.326 41.3112 188.938 41.0005C188.549 40.6899 187.85 40.5345 186.841 40.5345C186.142 40.5345 185.598 40.6899 185.21 40.9228C184.821 41.1558 184.666 41.8548 184.433 42.4761ZM189.559 45.6603C189.093 45.8157 188.316 46.0487 187.229 46.2816C186.142 46.5146 185.443 46.7476 185.132 46.9806C184.666 47.3689 184.355 47.7573 184.355 48.3009C184.355 48.8445 184.588 49.3105 184.977 49.6988C185.365 50.0872 185.909 50.3202 186.53 50.3202C187.229 50.3202 187.85 50.0872 188.472 49.6212C188.938 49.3105 189.248 48.8445 189.404 48.3786C189.481 48.0679 189.559 47.4466 189.559 46.5146V45.6603Z" fill="#596271"/>
<path d="M210.373 52.5724H206.8V50.4755C206.179 51.3298 205.48 51.9511 204.703 52.3394C203.927 52.7277 203.072 52.9607 202.296 52.9607C200.665 52.9607 199.189 52.2617 198.024 50.9415C196.859 49.6212 196.238 47.7573 196.238 45.3497C196.238 42.8644 196.782 41.0005 197.947 39.7579C199.112 38.5153 200.587 37.8163 202.296 37.8163C203.927 37.8163 205.325 38.5153 206.49 39.8356V32.6128H210.295V52.5724H210.373ZM200.121 45.039C200.121 46.5923 200.354 47.6796 200.743 48.3786C201.364 49.3882 202.218 49.8542 203.305 49.8542C204.16 49.8542 204.936 49.4659 205.558 48.6892C206.179 47.9126 206.49 46.8253 206.49 45.3497C206.49 43.7187 206.179 42.4761 205.558 41.7772C204.936 41.0782 204.16 40.6899 203.228 40.6899C202.296 40.6899 201.519 41.0782 200.976 41.7772C200.432 42.4761 200.121 43.5634 200.121 45.039Z" fill="#596271"/>
<path d="M224.818 42.4761L221.323 41.8548C221.712 40.4569 222.411 39.4472 223.343 38.7483C224.275 38.0493 225.75 37.7386 227.614 37.7386C229.323 37.7386 230.565 37.9716 231.42 38.3599C232.274 38.7483 232.818 39.2919 233.206 39.9132C233.594 40.5345 233.75 41.6995 233.75 43.3304L233.672 47.8349C233.672 49.0775 233.75 50.0872 233.827 50.6308C233.905 51.1745 234.216 51.8734 234.526 52.5724H230.721C230.643 52.3394 230.488 51.9511 230.332 51.4074C230.255 51.1745 230.255 51.0191 230.177 50.9415C229.556 51.5628 228.857 52.0288 228.08 52.3394C227.304 52.6501 226.527 52.8054 225.673 52.8054C224.197 52.8054 223.032 52.4171 222.178 51.5628C221.323 50.7085 220.857 49.6988 220.857 48.4562C220.857 47.6019 221.09 46.903 221.479 46.2816C221.867 45.6603 222.411 45.1167 223.11 44.806C223.809 44.4954 224.818 44.1847 226.139 43.8741C227.925 43.5634 229.167 43.2528 229.866 42.9421V42.5538C229.866 41.8548 229.711 41.3112 229.323 41.0005C228.934 40.6899 228.235 40.5345 227.226 40.5345C226.527 40.5345 225.983 40.6899 225.595 40.9228C225.207 41.1558 225.051 41.8548 224.818 42.4761ZM229.944 45.6603C229.478 45.8157 228.701 46.0487 227.614 46.2816C226.527 46.5146 225.828 46.7476 225.517 46.9806C225.051 47.3689 224.741 47.7573 224.741 48.3009C224.741 48.8445 224.974 49.3105 225.362 49.6988C225.75 50.0872 226.294 50.3202 226.915 50.3202C227.614 50.3202 228.235 50.0872 228.857 49.6212C229.323 49.3105 229.633 48.8445 229.789 48.3786C229.866 48.0679 229.944 47.4466 229.944 46.5146V45.6603Z" fill="#596271"/>
<path d="M250.68 52.5724H246.875V45.1944C246.875 43.6411 246.797 42.6315 246.642 42.1655C246.486 41.6995 246.176 41.3112 245.865 41.0782C245.554 40.8452 245.088 40.6899 244.545 40.6899C243.846 40.6899 243.302 40.8452 242.759 41.2335C242.215 41.6218 241.904 42.0878 241.671 42.7091C241.438 43.3304 241.361 44.4177 241.361 46.0487V52.6501H237.555V38.127H241.128V40.2239C242.37 38.5929 244.001 37.7386 245.943 37.7386C246.797 37.7386 247.574 37.894 248.273 38.2046C248.972 38.5153 249.515 38.9036 249.826 39.3696C250.137 39.8356 250.447 40.3792 250.603 41.0005C250.758 41.6218 250.836 42.4761 250.836 43.5634V52.5724H250.68Z" fill="#596271"/>
<path d="M262.33 36.1077V32.5352H266.135V36.1077H262.33ZM262.33 52.5724V38.127H266.135V52.6501H262.33V52.5724Z" fill="#596271"/>
<path d="M269.786 38.127H273.358V40.0686C274.601 38.5153 276.154 37.7386 277.863 37.7386C278.795 37.7386 279.571 37.894 280.27 38.2823C280.969 38.6706 281.513 39.2143 281.979 39.9909C282.6 39.2143 283.299 38.6706 284.076 38.2823C284.852 37.894 285.629 37.7386 286.406 37.7386C287.493 37.7386 288.347 37.9716 289.124 38.3599C289.9 38.7483 290.444 39.4472 290.755 40.3015C290.988 40.9229 291.143 41.9325 291.143 43.3304V52.5724H287.338V44.3401C287.338 42.8644 287.182 42.0101 286.949 41.5442C286.561 41.0005 286.017 40.6899 285.318 40.6899C284.775 40.6899 284.309 40.8452 283.765 41.1558C283.221 41.4665 282.988 41.9325 282.755 42.6315C282.522 43.3304 282.445 44.2624 282.445 45.6603V52.6501H278.639V44.6507C278.639 43.2528 278.562 42.3208 278.406 41.9325C278.251 41.5442 278.096 41.2335 277.785 41.0005C277.474 40.7675 277.086 40.6899 276.62 40.6899C275.999 40.6899 275.533 40.8452 274.989 41.1558C274.445 41.4665 274.212 41.9325 273.979 42.5538C273.746 43.1751 273.669 44.1847 273.669 45.505V52.5724H269.863V38.127H269.786Z" fill="#596271"/>
<path d="M297.822 42.4761L294.327 41.8548C294.716 40.4569 295.415 39.4472 296.347 38.7483C297.278 38.0493 298.754 37.7386 300.618 37.7386C302.327 37.7386 303.569 37.9716 304.424 38.3599C305.278 38.7483 305.821 39.2919 306.21 39.9132C306.598 40.5345 306.753 41.6995 306.753 43.3304L306.676 47.8349C306.676 49.0775 306.753 50.0872 306.831 50.6308C306.909 51.1745 307.219 51.8734 307.53 52.5724H303.725C303.647 52.3394 303.492 51.9511 303.336 51.4074C303.259 51.1745 303.259 51.0191 303.181 50.9415C302.56 51.5628 301.861 52.0288 301.084 52.3394C300.307 52.6501 299.531 52.8054 298.676 52.8054C297.201 52.8054 296.036 52.4171 295.182 51.5628C294.327 50.7085 293.861 49.6988 293.861 48.4562C293.861 47.6019 294.094 46.903 294.483 46.2816C294.871 45.6603 295.415 45.1167 296.114 44.806C296.812 44.4954 297.822 44.1847 299.142 43.8741C300.929 43.5634 302.171 43.2528 302.87 42.9421V42.5538C302.87 41.8548 302.715 41.3112 302.327 41.0005C301.938 40.6899 301.239 40.5345 300.23 40.5345C299.531 40.5345 298.987 40.6899 298.599 40.9228C298.21 41.1558 298.055 41.8548 297.822 42.4761ZM302.948 45.6603C302.482 45.8157 301.705 46.0487 300.618 46.2816C299.531 46.5146 298.832 46.7476 298.521 46.9806C298.055 47.3689 297.744 47.7573 297.744 48.3009C297.744 48.8445 297.977 49.3105 298.366 49.6988C298.754 50.0872 299.298 50.3202 299.919 50.3202C300.618 50.3202 301.239 50.0872 301.861 49.6212C302.327 49.3105 302.637 48.8445 302.793 48.3786C302.87 48.0679 302.948 47.4466 302.948 46.5146V45.6603Z" fill="#596271"/>
<path d="M310.171 53.582L314.52 54.1257C314.597 54.6693 314.753 54.98 315.063 55.213C315.452 55.5236 315.995 55.6013 316.772 55.6013C317.782 55.6013 318.558 55.446 319.024 55.1353C319.335 54.9023 319.646 54.5917 319.801 54.2033C319.956 53.8927 319.956 53.2714 319.956 52.4171V50.3202C318.791 51.8734 317.393 52.6501 315.607 52.6501C313.666 52.6501 312.112 51.7958 310.947 50.1648C310.093 48.8445 309.627 47.2136 309.627 45.272C309.627 42.8644 310.248 41.0005 311.413 39.6802C312.578 38.3599 314.054 37.7386 315.762 37.7386C317.549 37.7386 319.024 38.5153 320.189 40.0686V38.0493H323.762V51.0968C323.762 52.8054 323.606 54.048 323.373 54.9023C323.14 55.7566 322.675 56.3779 322.209 56.9216C321.743 57.4652 321.044 57.7759 320.189 58.0865C319.335 58.3972 318.248 58.4748 316.927 58.4748C314.442 58.4748 312.734 58.0865 311.724 57.2322C310.714 56.3779 310.171 55.2906 310.171 54.048C310.171 53.8927 310.171 53.7374 310.171 53.582ZM313.588 45.039C313.588 46.5923 313.898 47.6796 314.52 48.4562C315.141 49.2329 315.84 49.5435 316.694 49.5435C317.626 49.5435 318.403 49.1552 319.102 48.4562C319.801 47.7573 320.034 46.67 320.034 45.1944C320.034 43.7187 319.723 42.5538 319.102 41.8548C318.481 41.1558 317.704 40.7675 316.772 40.7675C315.84 40.7675 315.063 41.1558 314.52 41.8548C313.976 42.5538 313.588 43.5634 313.588 45.039Z" fill="#596271"/>
<path d="M335.955 47.9902L339.76 48.6116C339.295 50.0095 338.518 51.0968 337.431 51.7958C336.343 52.4947 335.023 52.8831 333.47 52.8831C330.985 52.8831 329.121 52.0288 327.878 50.3978C326.946 49.0775 326.48 47.4466 326.48 45.4273C326.48 43.0198 327.101 41.1558 328.344 39.7579C329.587 38.3599 331.218 37.7386 333.081 37.7386C335.256 37.7386 336.965 38.4376 338.207 39.9132C339.45 41.3888 340.071 43.4858 339.994 46.437H330.363C330.363 47.6019 330.674 48.4562 331.295 49.0775C331.916 49.6988 332.615 50.0095 333.47 50.0095C334.091 50.0095 334.557 49.8542 335.023 49.5435C335.489 49.2329 335.8 48.6892 335.955 47.9902ZM336.188 44.1071C336.188 43.0198 335.877 42.1655 335.334 41.5442C334.79 40.9229 334.091 40.6899 333.314 40.6899C332.46 40.6899 331.761 41.0005 331.217 41.6218C330.674 42.2431 330.441 43.0974 330.441 44.1071H336.188V44.1071Z" fill="#596271"/>
</svg>
